<?xml version="1.0" encoding="utf-8"?>
<!-- Generator: Adobe Illustrator 23.0.1, SVG Export Plug-In . SVG Version: 6.00 Build 0)  -->
<svg version="1.1" id="Layer_1" xmlns="http://www.w3.org/2000/svg" xmlns:xlink="http://www.w3.org/1999/xlink" x="0px" y="0px"
	 viewBox="0 0 358 358" style="enable-background:new 0 0 358 358;" xml:space="preserve">
<style type="text/css">
	.st0{fill:#F79952;stroke:#3B3B3B;stroke-width:3;stroke-miterlimit:10;}
	.st1{fill:#FFFFFF;stroke:#3B3B3B;stroke-width:5;stroke-miterlimit:10;}
	.st2{fill:#FFFFFF;stroke:#3B3B3B;stroke-width:2;stroke-miterlimit:10;}
	.st3{fill:#3B3B3B;}
	.st4{fill:#FFFFFF;}
	.st5{fill:#FFFFFF;stroke:#3B3B3B;stroke-width:4;stroke-miterlimit:10;}
</style>
<title>Asset 1</title>
<g>
	<g id="Layer_2-2">
		<circle class="st0" cx="179" cy="179" r="179"/>
		<path class="st1" d="M303,222c-4.6,14.7-9.1,29.3-13.7,44c-1.3,4.2-5.2,5.5-10.3,3.5s-7.1-5.3-5.4-9.5
			c11.5-27.1,22.9-54.2,34.5-81.2c2.4-5.5,2.8-10.2-2.6-15.7c-2.6-2.7-3.7-7.4-3.5-10.9c0.7-13.4,6.9-24.5,18.4-32.4
			c10.3-7.1,19.8-3.7,23.3,8.2c4,13.7,1.5,26.3-6.8,37.1c-2.3,3-6.8,5.4-10.9,6.2c-5.6,1.1-8.6,3.5-10,8.1
			C311.7,193.6,307.3,207.8,303,222L303,222z"/>
		<path class="st2" d="M38.5,115.7c1,1.2,1.8,2.4,2.5,3.7c5,11.6,9.9,23.2,14.9,34.8c1.7,4,1.3,7.8-1.2,12.4
			c-1.7,3.4-1.8,7.3-0.5,10.8c7.3,18,15.3,35.7,22.9,53.5c4.1,9.4,8.1,18.9,12.1,28.4c1.5,3.6-1,7.1-6.4,9.2s-10.2,1.1-11.4-2.8
			c-8.2-27.3-16.4-54.7-24.5-82c-1.7-5.7-3.6-10.9-11.6-12.6c-2.3-0.5-4.1-3-4.8-5c-4.4-13.2-8.4-26.6-12.4-39.9
			c-0.3-0.9,0.2-2.1,1.8-3.5l12.2,33.6l2.4-0.8c-3.7-11.6-7.5-23.3-11.2-35l2.2-0.9c4,2.4,3.7,7,5.4,10.6c1.7,3.8,2.9,7.8,4.3,11.7
			s2.9,7.9,4.3,11.9l1.9-0.7c-3.2-11.8-8.8-23-11.8-34.9l3.2-1.2l13.7,34l1.8-0.7l-12.2-33.5L38.5,115.7z"/>
		<path class="st3" d="M300.1,113.6c2,36.5-16.3,58.6-52.9,62.4c1,9.4,1.9,18.2,2.8,27.2c-43.6-20.6-87.6-19.4-131.5-0.7
			c1-8,2-16.5,3.1-25.4c-38.8,6.1-60.7-9.3-63.6-43.5c-2.4-28.5,17.9-49.2,50.6-50.7c6.3-44.6,33.2-63.3,71.5-64.8
			c29.2-1.1,49.5,14.3,58.8,45.4C277.5,62.9,298.2,80,300.1,113.6z M288.3,138c7.1-22-0.5-47.1-17.9-59.3
			c-17.1-12-29.7-9.4-47.6,10.9c1.6-4.9,2.2-8.6,3.9-11.4c5.4-9.2,2.8-17.3-2.3-25C208.5,29.3,172.7,23,145.2,39
			c-25.6,14.9-32.4,37.6-22.6,72.3c-2.4-3.3-5.8-6.2-7.1-10c-2.7-7.8-8.1-8.7-14.3-8.4c-18.3,0.9-32.6,18.2-32.3,39.3
			c0.2,21.4,15.5,40.4,33.7,38.6c11.9-1.1,23.4-7.1,35.4-10.9c-15.7-22.1-17.1-25.1-16.1-36.1c11.3,27.9,38.5,43.3,53,31
			c-2.7-12.3-5.3-24.2-7.9-36.1c5,18.4,11.4,35.7,30.5,38.9c20.5,3.4,27.2-14.5,33.2-31.9c0.1,4-0.3,8.1-1.3,12
			c-5.7,23.3-5.7,23.3,15.8,26.4C265.2,166.8,282.3,156.5,288.3,138z M235.6,174.3c0.1-1.6,0.2-3.1,0.3-4.7l-83.6-4.1
			c0,1-0.1,2-0.1,3l11.1,1.2l-32.8,7.4l0.4,1h79l-3.1-2.8l28.4,4.7l0.3-1.7l-18-5.4c0.1-0.5,0.2-1,0.3-1.5L235.6,174.3z"/>
		<path class="st4" d="M270.4,78.6c17.4,12.3,25,37.4,17.9,59.4c-6,18.5-23.1,28.8-43,26c-21.6-3.1-21.5-3.1-15.8-26.4
			c0.9-3.9,1.3-8,1.3-12c-6,17.4-12.7,35.4-33.2,31.9c-19.1-3.2-25.5-20.6-30.5-38.9c2.6,11.9,5.2,23.8,7.9,36.1
			c-14.5,12.3-41.7-3.1-52.9-31c-1,11,0.4,14,16.1,36.1c-12,3.9-23.5,9.8-35.4,10.9c-18.2,1.8-33.5-17.2-33.7-38.6
			c-0.2-21,14.1-38.4,32.3-39.3c6.2-0.3,11.6,0.6,14.3,8.4c1.3,3.8,4.7,6.7,7.1,10c-9.9-34.7-3-57.4,22.6-72.3
			c27.5-16,63.3-9.7,79.1,14.1c5.2,7.8,7.8,15.8,2.3,25c-1.7,2.8-2.3,6.5-3.9,11.4C240.6,69.2,253.3,66.6,270.4,78.6z M258.5,80.5
			c-18.2-4.2-30.5,7.6-28.5,27.1C240.8,83.8,240.8,83.8,258.5,80.5z M158.1,40.8c-15.5,5.7-25.8,17.4-29.5,35.1
			c-2.4,11.4-1.7,22.6,8.1,31.2C128.1,78.5,135.1,56.6,158.1,40.8z M83.8,152.7c-5.2-17.3-3.9-31.8,6.8-44.3
			C75.1,120.9,72.1,138.6,83.8,152.7z"/>
		<path class="st3" d="M230,107.6c-2-19.4,10.4-31.2,28.5-27.1C240.8,83.8,240.8,83.8,230,107.6z"/>
		<path class="st1" d="M221.7,248.3c9.4,7,19.2,9.1,31.1-0.9c-7.5,19.5-14.6,23.7-30.3,19.7c-11.4-2.9-22.4-5.3-33.4,2
			c-2.4,1.6-7,1.7-9.4,0.1c-10.9-7.4-22-5-33.3-2.2c-15.8,4-22.6,0-30.7-20c14.5,12.9,25.4,5.5,36.3-2.2s21.6-8,32.3,2.7
			C197,234.3,209.4,239.1,221.7,248.3z"/>
		<path class="st4" d="M235.9,169.6c-0.1,1.6-0.2,3.1-0.3,4.7l-17.6-3.1c-0.1,0.5-0.2,1-0.3,1.5l18,5.4l-0.3,1.7l-28.4-4.7l3.1,2.8
			h-79l-0.4-1l32.8-7.4l-11.1-1.2c0-1,0.1-2,0.1-3L235.9,169.6z"/>
		<path class="st3" d="M128.6,75.9c3.8-17.7,14-29.4,29.5-35.1c-23,15.7-30,37.6-21.4,66.3C126.9,98.5,126.2,87.3,128.6,75.9z"/>
		<path class="st3" d="M90.7,108.4c-10.7,12.5-12.1,27-6.8,44.3C72.1,138.6,75.1,120.9,90.7,108.4z"/>
		
			<ellipse transform="matrix(0.9324 -0.3615 0.3615 0.9324 -62.1861 88.9365)" class="st3" cx="206.6" cy="210.7" rx="18.8" ry="2.1"/>
		<ellipse class="st5" cx="157.1" cy="213.9" rx="9.4" ry="10.4"/>
	</g>
</g>
</svg>
