<svg xmlns="http://www.w3.org/2000/svg" viewBox="0 0 325.46 347.06"><defs><style>.cls-1{fill:#303030;}.cls-2{fill:#373737;}.cls-3{fill:#fbfaf9;}.cls-4{fill:#ececec;}.cls-5{fill:#e1e1e1;}.cls-6{fill:#f99e15;}.cls-7{fill:#f3f4f4;}.cls-8{fill:#f9a11c;}.cls-9{fill:#f99f18;}.cls-10{fill:#f9a01a;}.cls-11{fill:#f9a527;}</style></defs><title>Asset 1</title><g id="Layer_2" data-name="Layer 2"><g id="Layer_1-2" data-name="Layer 1"><path class="cls-1" d="M99,300.71c-.64-2.4-2.78-1.94-4.27-2.41-21.17-6.75-39.41-18.36-54.3-36.48A110.86,110.86,0,0,1,18,215.67c-4.46-19-2.73-37.6,3.87-55.3,7.05-18.91,18.37-34.69,34.38-46.31,40.24-29.18,82-29.26,124.85-11.84,5.57,2.26,10.72,5.83,15.69,9.57,7.46,5.61,11.38,4.42,15.77-4.36,3.93-7.85,10.68-12.86,16.17-19.1C234.5,81.7,241.18,76,247.4,69.76c9.7-9.7,19.42-19.37,29-29.26,5.15-5.35,10-10.86,16.16-15,9.37-6.36,27.05-.83,30.38,10.72a41.24,41.24,0,0,0,2.57,5.67l-.85,8c-3.41,2.11-4.78,6.48-7.85,8.86C306.3,66.81,295.87,75,285.32,82.94c-11.67,8.78-23.12,17.92-34.83,26.63-7.74,5.75-15,12.23-24.3,15-5.35,1.6-6.85,5-4.33,10.34a140.8,140.8,0,0,0,8,14.29,87.14,87.14,0,0,1,12.38,33.95c2.9,20.05.2,39.43-9.23,57.94A121.22,121.22,0,0,1,211.17,272c-16.93,17-37.3,26-59.75,29.53-7.11,1.13-14.34.39-21.35,2.48Zm24.48-34.34a50.27,50.27,0,0,0,15.05-.33c17.56-2.51,33-10,46.48-23.31,14.08-13.85,22.83-30,21.46-51a30.62,30.62,0,0,0-7.4-18.46c-8-9-18-10.31-28.56-9.71-9.55.54-18.67,4-28,5.95-6.7,1.38-11.51-1.54-14.16-8.2-1.84-4.6-3.5-9.31-5.64-13.72-1.83-3.75-3.9-7.75-7.15-10-15.06-10.34-36.44-7.13-46.33,12.19-4.84,9.45-8.33,19.58-8.79,30.7-.15,3.51,1,6.58,1.06,9.86C61.67,209,67.71,225,77.94,239.32,89.57,255.63,105.08,263.81,123.5,266.37Zm85.18-116.56C189,114.56,137.55,96,94.62,113.83c20.77-2.42,41.45-4.66,61.82,1.88C176.59,122.19,193.52,134.26,208.68,149.81ZM55.75,250.74c21.6,34.57,80.95,43.23,99.47,29.48C117.34,285.26,84.25,276.56,55.75,250.74ZM301.06,50.83c3.39.4,8.54-3,9.1-5.95.5-2.63-4.1-7.44-7.46-7.78-4.92-.51-8.2,1.73-8.64,5.91S296.4,50.28,301.06,50.83Z"/><path class="cls-2" d="M5.69,178.49c-1.19,8.94.35,17.6,1,26.31,1.2,16,6.38,30.49,14.27,43.77,2.46,4.14,3.16,6.6,2.64,10.16C6.67,243.71.66,223.05,0,199.85-.19,192.33,1.2,184.94,5.69,178.49Z"/><path class="cls-3" d="M123.5,266.37c-18.42-2.56-33.93-10.74-45.56-27.05C67.71,225,61.67,209,61.5,190.38c0-3.28-1.21-6.35-1.06-9.86.46-11.12,4-21.25,8.79-30.7,9.89-19.32,31.27-22.53,46.33-12.19,3.25,2.23,5.32,6.23,7.15,10,2.14,4.41,3.8,9.12,5.64,13.72,2.65,6.66,7.46,9.58,14.16,8.2,9.35-1.92,18.47-5.41,28-5.95,10.61-.6,20.6.68,28.56,9.71a30.62,30.62,0,0,1,7.4,18.46c1.37,20.94-7.38,37.13-21.46,51C171.54,256,156.11,263.53,138.55,266A50.27,50.27,0,0,1,123.5,266.37Zm40.25-40c.58-5.45-.68-8.69-2.43-12.3-5.59-11.49-22.17-14.67-33.78-8.8-7.93,4-13.66,17.52-10.24,24.9,3.88,8.38,10,13.7,18.47,15.47C148.36,248.24,163.06,239.84,163.75,226.34Z"/><path class="cls-4" d="M208.68,149.81c-15.16-15.55-32.09-27.62-52.24-34.1-20.37-6.54-41-4.3-61.82-1.88C137.55,96,189,114.56,208.68,149.81Z"/><path class="cls-5" d="M55.75,250.74c28.5,25.82,61.59,34.52,99.47,29.48C136.7,294,77.35,285.31,55.75,250.74Z"/><path class="cls-2" d="M243.34,154.26c3.88,1.1,5.87,4.14,7.14,7.07,2.61,6,5.57,12.06,6.28,18.86,1.1,10.48,3.42,20.87,1.58,31.63-2.77,16.07-7.9,31.05-17.27,44.1-.32.45-.57,1.07-1,1.34-2,1.25-4.15,4.81-6,3.25-2.25-1.89,1.13-4.12,2.16-5.71,9.36-14.46,14.3-31.09,15.53-47.92,1.26-17.24-.94-34.82-7.91-50.85C243.69,155.64,243.61,155.19,243.34,154.26Z"/><path class="cls-6" d="M163.75,226.34c-.69,13.5-15.39,21.9-28,19.27-8.43-1.77-14.59-7.09-18.47-15.47-3.42-7.38,2.31-20.9,10.24-24.9,11.61-5.87,28.19-2.69,33.78,8.8C163.07,217.65,164.33,220.89,163.75,226.34Zm-33.21-8c4.07.48,11.12-3.43,11.35-6.48s-2.2-3.58-4.12-3.89c-4.15-.65-10.22,3-10.61,6.43C126.89,216.7,128.38,218.1,130.54,218.34Z"/><path class="cls-7" d="M130.54,218.34c-2.16-.24-3.65-1.64-3.38-3.94.39-3.44,6.46-7.08,10.61-6.43,1.92.31,4.35.78,4.12,3.89S134.61,218.82,130.54,218.34Z"/><path class="cls-8" d="M217,70.1c8.53,2.41,15.17,6.68,22.76,8.47,9.44,2.23,18.79,1.4,28.17-.13,3.82-.63,6.22-2.81,6.3-6.71.07-3.52-2.07-5.5-5.33-7-6.36-2.87-13.1-2.93-19.8-3.51s-13.28-1.44-19.71-4c-5.06-2-7.91-6-9.95-10-3-5.91,2.3-9.86,6.45-11.84,11.28-5.39,23-6.29,34.43.33,3.43,2,4.29,4.95,4.25,8.45,0,2.67-.7,5.32-4,5.46-3.62.17-2.95-2.78-3-5-.1-3.11-1.29-5.36-4.65-5.73-5.65-.61-11.33-1.2-17-.36-4.35.65-6.81,3.26-7.13,7.59s2.86,5.93,6.21,6.8c8.4,2.18,17.09,2.48,25.67,3.45a59.69,59.69,0,0,1,15.34,3.36c5.61,2.19,7.75,6,7.7,11.64s-1.5,10.5-7.65,12.32c-16.66,4.94-33.3,4.85-49.39-1.83C222.34,80.16,217.92,76.81,217,70.1Z"/><path class="cls-8" d="M135.38,78.14c-3.66,5.84-9.12,7.07-14.29,8-17.15,3-32-1.63-44-14.46-5.7-6.11-6-23.38-1-32.72,5.31-9.78,20.32-17,31.1-15.07,7.91,1.45,14.06,7.21,15.8,14.24,2,8.22-3,12.7-8.74,16.4-7.76,5-16.35,7.73-25.78,5.83-2-.41-5.43.43-5.12-3.11.25-3,3.13-3.08,5.48-2.84,7.27.75,13.52-2,19.79-5.17,4.34-2.23,7.69-4.67,6.27-10.1-1.52-5.83-5.92-8.65-11.51-9.1-11.52-.94-22.53,10-22.58,22-.07,14.67,8.08,24,22.6,26.3,9.07,1.43,18.07.69,27.1-.18C131.88,78,133.27,78.14,135.38,78.14Z"/><path class="cls-9" d="M165.56,61.8c0-1.09,0-3,0-4.89.09-9.65-.87-10.73-10.48-11.79-1.87-.21-3.89-.09-5-2-1-1.66-1.44-2.8,1.33-3.43,14.46-3.32,15.63-5.17,13.65-20-.32-2.41-1.73-5.07.79-7.06s7.16-.13,7.55,3.43a103.54,103.54,0,0,1,.47,12c-.06,7.81,2.06,10.2,9.86,10.65,1.48.09,3,0,4.43.07,1.64.08,2.83.8,3,2.57.24,2-.77,3.18-2.64,3.69a12.54,12.54,0,0,1-1.25.17c-13.19,2-13,2-12,15.42.53,6.71.43,13.47.52,20.2,0,2,.51,4.67-2.39,5.07s-4.75-1.26-5.73-3.88C165.39,75.68,165.12,69.17,165.56,61.8Z"/><path class="cls-10" d="M50.14,87C43,86.35,37.25,86.75,31.74,85,24.3,82.53,17.58,73.38,19.45,66c2-8.08,1.15-16.28,2.71-24.31,1.1-5.61,2.11-11.2,4.29-16.51.45-1.12.93-2.7,2.49-2.27.78.22,1.47,1.43,1.85,2.34a21.74,21.74,0,0,1,1.07,12.42c-1.56,9.24-3.08,18.49-4.43,27.76-.94,6.5,3.05,9.68,8.57,11.21a59.49,59.49,0,0,0,18.16,2.07c3.51-.12,9.43-1.35,9.17,4.42-.25,5.36-5.72,4.22-9.61,4.16C52,87.22,50.34,87.05,50.14,87Z"/><path class="cls-8" d="M281.36,271.73c7,0,8.89,3.07,5.81,9.83-2,4.46-2.82,8.41,3,10.54,2.07.75,4.29,1.74,2.65,4.4-1.48,2.4-3.32,5.4-6.89,3.35-3.19-1.83-6.49-3.76-7.8-7.62-1.12-3.15,1-4.83,2.81-6.85.83-.92,1.59-3-.09-3.84-1.4-.7-2.9.6-3.29,2-.76,2.58-1.09,5.28-1.6,7.92-3.39,4.07-6.45,4-8.05-.66-3.89-11.37-.84-22.28,3.81-32.62,1.67-3.71,5.89-4.17,9.69-1.63,3.31,2.22,3.5,5.22,2.21,8.57-.74,1.91-1.66,3.76-2.5,5.64-1.32-.24-4,2-3.28-1.94a6.13,6.13,0,0,0-1.77-5.67c-3.34,4.83-2.07,9.76-.94,15.2C277.68,276.09,279.94,274.33,281.36,271.73Z"/><path class="cls-8" d="M234.82,288.22c.58,4.57,1.08,8.83-2.62,12.84-4.68,5.07-10.18,6.53-16.52,5.07-4.62-1.06-7.44-9.82-4.69-15.9,2-4.43,4.43-9.15,9.58-10.87,1.05-.35,5-5.05,4.3,1.46a2.16,2.16,0,0,0,1.42.45C232.33,279.7,233.26,284.26,234.82,288.22ZM227.87,293c-.62-4-4.75-8.77-6.07-8.27-4.61,1.76-3.53,6.72-2.87,10.8.6,3.67,3.18,5.79,6.6,4.88C229.28,299.44,228.24,295.88,227.87,293Zm-4.66-11c-.11.19-.33.42-.29.52a4,4,0,0,0,.59.73c.1-.17.33-.4.29-.5A4.4,4.4,0,0,0,223.21,282Z"/><path class="cls-8" d="M263.35,281.6c1.84,7.67-3.57,15.9-11.78,17.94-6.44,1.6-11.46-1-13-6.71-2.15-8.1,4.67-19.95,12.34-21.46C253.89,270.79,262.46,277.85,263.35,281.6Zm-15.77,6.75c.45,3.32,2.07,6.14,5.61,5.44,4-.79,3.63-4.37,3.3-7.67-.5-4.95-5.42-7.55-7.87-6.89C245.62,280,247,285.07,247.58,288.35Z"/><path class="cls-8" d="M199.43,312.8c-4.48.64-6.77-2-7.45-5.86-1.16-6.52-.72-12.8,4.09-18.19,2.08-2.33,3.91-4.39,7.33-3.59,2,.48,2.36,2.16,2.71,3.84.76,3.61-1.56,5.56-4.2,6.9-1.82.94-3.45,1.37-2.41,3.91.62,1.52.32,3.64,1.94,4.47,2.22,1.13,2.7-1.25,3.65-2.44.73-.91,1.64-1.5,2.65-1.09,1.62.65,1.14,2.54.69,3.26C206.17,307.62,204.54,312,199.43,312.8Z"/><path class="cls-8" d="M199.33,324.93c2.5,7,1.35,13.3-2.56,19.12-2.45,3.65-6,3.71-9.36,1.62s-3.39-5.51-.83-8.05C190.75,333.47,193.65,328,199.33,324.93Z"/><path class="cls-8" d="M218.36,320.55c2.22,5.7,5.89,9.29,6.81,14.47a6.88,6.88,0,0,1-2.61,7.05,7.64,7.64,0,0,1-8.25,1.05c-2.56-1.29-2.52-3.83-2.61-6.51C211.5,330.53,214.81,326.21,218.36,320.55Z"/><path class="cls-8" d="M189.6,315.23c-5.14,6.6-8.2,14.12-17.33,14.85-2.48.19-4.68.38-5.57-2.54-.76-2.51-.11-4.25,2.36-5.69C175.19,318.26,181.3,314.9,189.6,315.23Z"/><path class="cls-11" d="M208.4,29.24c-9-8.22-9.71-17.14-7.6-26.78.21-1,0-2.25,1.41-2.44,1.24-.17,1.84.88,2.39,1.71a22,22,0,0,1,3.77,11.83C208.49,18.31,208.4,23.07,208.4,29.24Z"/></g></g></svg>