<?xml version="1.0" encoding="utf-8"?>
<!-- Generator: Adobe Illustrator 23.0.1, SVG Export Plug-In . SVG Version: 6.00 Build 0)  -->
<svg version="1.1" id="Layer_1" xmlns="http://www.w3.org/2000/svg" xmlns:xlink="http://www.w3.org/1999/xlink" x="0px" y="0px"
	 viewBox="0 0 562.9 488" style="enable-background:new 0 0 562.9 488;" xml:space="preserve">
<style type="text/css">
	.st0{fill:#FAB22F;}
	.st1{fill:#E68B61;}
	.st2{fill:#FDFDFC;}
</style>
<title>Asset 1</title>
<g>
	<g id="Layer_1-2">
		<path class="st0" d="M213.9,297c-1.4-7.3,1.1-9.9,3.1-11.3c15.9-11.3,15.8-30.4,13.4-49.5c-5-40-1.9-81.2-11-120.7
			c-4.7-20.1-14.1-34.8-26.2-47.3c-3.8-3.9-8.6-7.3-12.9-5.5c-5.8,2.5-3.4,10.7-3.4,16.3c-0.2,64.9-0.7,129.9,0.3,194.7
			c0.3,19.7-4.5,24.9-18.7,23.6c-16.8-1.6-33.7-0.4-50.5-0.4c-19.2,0-25.1-11.6-18.5-35.9c2.4-8.8,6.9-15.1,11.9-21.3
			c14.8-18.3,23.1-39.9,22.2-67.4c-0.7-22.8-0.1-45.6-0.2-68.4c-0.1-18.5-8.1-30.9-21.1-33.4c-16-3.1-32.5-3.5-48.7,0.6
			c-12.5,3.2-19,13-18.9,30.2c0.2,28.3-0.1,56.6,0.1,84.9c0.2,18,6.8,32.7,15.7,45.8c3.8,5.6,8,10.8,11.7,16.5
			c8.3,12.9,8.9,29.2,5.2,43c-3,11.2-14,4.4-21.3,5c-11.5,1-23.2-0.1-34.7,0.5C3.1,297.6,0,293.5,0,282.8
			C0.2,207.5-0.4,132.2,0.5,57C0.9,24.9,21.2,0.4,46,0.3c104.8-0.4,209.6-0.5,314.4-0.1c26.4,0.1,50.9,25.3,48.2,63.2
			c-0.6,8.9-0.1,17.9,0,26.9c0.2,41.4,18.8,55.4,46.1,35.4c13.6-10,26.7-20.4,43.8-19.8c36.8,1.4,66.1,40.1,64.3,87.5
			c-1.8,48.7-32.2,83.2-69.2,80.5c-15.7-1.1-27.6-11.9-40.5-20.6c-24.9-16.8-41.7-6.3-44.1,29.4c-0.9,12.5-4.5,14.5-12.6,14.3
			c-16.8-0.5-33.7-0.1-50.5-0.2c-19.8,0-27.5-18.5-17.4-42.3c1.3-3,2.7-6.3,4.7-8.3c34.3-33.9,27.2-81.8,23.7-127.1
			c-1.8-24.1-24-39.9-46.2-38.2c-20.1,1.6-37.6,23.7-39.2,52.6c-2.4,42.4-2.9,84.3,27.2,114.2c9.8,9.8,8.1,25.9,7.6,40.4
			c-0.3,9.3-5.6,8.6-10.3,8.6C268.6,297,241.2,297,213.9,297z M499.5,222.9c14.7-0.2,24.4-13.3,24.5-32.7
			c0-17.9-11.3-33.4-24.6-33.6s-26.9,16.8-27,33.8C472.2,207.8,484.9,223.1,499.5,222.9L499.5,222.9z"/>
		<path class="st1" d="M281.7,360c-88.4,0-176.8-0.1-265.2-0.1c-6.6,0-15.8,3.9-16.3-12c-0.5-17.2,9-13.8,16.4-13.8
			c175.8-0.1,351.5-0.1,527.3,0c3.7,0,7.3,0.1,11,0.5c5.9,0.7,7.8,5.8,7.9,12.9c0.1,7.4-2,12-8,12.2c-4.2,0.1-8.4,0.3-12.6,0.3
			H281.7L281.7,360z"/>
		<path class="st0" d="M109.8,154.8c0,13.8-0.1,27.6,0,41.4c0.1,7.2-2.2,13.3-6.1,13.4s-6.4-5.9-6.4-12.9c0-27.5-0.2-54.9,0.1-82.4
			c0.1-6.9,1.5-15,6.9-14.6c5.7,0.4,5.6,8.9,5.6,15.8C109.8,128.6,109.8,141.7,109.8,154.8z"/>
		<path class="st0" d="M85.3,161.9c0,17.1-0.1,34.3,0,51.4c0.1,6.4-1.5,11.1-6.7,11.5c-6.2,0.4-6-6-6-11.4c-0.1-35-0.1-69.9,0-104.9
			c0-5.6-0.3-11.6,6.1-11.3c5.4,0.3,6.7,4.9,6.6,11.2C85.2,126.3,85.3,144.1,85.3,161.9z"/>
		<path class="st0" d="M60.5,153.1c0,15.1,0,30.3,0,45.4c0,5-0.4,10.2-5.6,9.8c-4-0.3-6.9-3.3-6.9-9.2c0-30.2,0-60.5,0.1-90.8
			c0-5.5,2.1-9.2,6.8-8.9c5.1,0.3,5.5,5.6,5.5,10.4C60.6,124.2,60.5,138.7,60.5,153.1L60.5,153.1z"/>
		<path class="st2" d="M499.5,222.9c-14.6,0.2-27.3-15-27.2-32.6c0.1-17,13.7-34.1,27-33.8c13.3,0.2,24.7,15.8,24.7,33.6
			C523.9,209.6,514.1,222.6,499.5,222.9z"/>
		<path class="st0" d="M81.4,444.8c-0.1,3.8-0.7,7.5-1.9,10.9c-1.4,4.2-3.4,8.1-5.8,11.5c-2.8,3.9-6.3,7.1-10.2,9.2
			c-4.5,2.5-9.5,3.7-14.4,3.5c-3.8,0-7.6-0.5-11.4-1.6c-3.3-1-6.4-2.7-9.3-4.9c-2.9-2.4-5.5-5.4-7.7-8.8c-2.1-3.4-3.9-7.2-5.3-11.1
			c-1.5-4.2-2.6-8.6-3.3-13.1c-0.8-4.9-1.1-9.9-1.1-14.8c-0.1-7.7,0.8-15.5,2.8-22.8c1.7-6.3,4.4-12.2,7.9-17.2
			c3.3-4.7,7.5-8.4,12.1-10.9c4.7-2.5,9.7-3.8,14.8-3.7c6-0.1,11.8,1.6,17.1,5.1c4.6,3,8.5,7.3,11.5,12.6c2.7,5,4,9.8,4,14.2
			c0,2.4-0.7,4.7-1.9,6.5c-1.1,1.8-2.9,2.8-4.7,2.8c-1.7,0.2-3.4-0.5-4.6-1.9c-1.4-2-2.5-4.3-3.4-6.7c-1.7-4.6-4.2-8.6-7.4-11.8
			c-3-2.7-6.7-4-10.4-3.9c-6.3-0.2-12.2,3.6-15.7,10c-3.9,6.7-5.8,16.2-5.8,28.4c-0.2,7,0.7,13.9,2.6,20.5c1.4,4.9,3.9,9.1,7.3,12.2
			c3.3,2.7,7.1,4.1,11.1,4c4.2,0.2,8.3-1.5,11.6-4.6c3.4-3.5,5.9-8.2,7.2-13.4c0.5-2.4,1.4-4.7,2.5-6.8c1.1-1.8,3-2.8,4.8-2.6
			c1.9,0,3.7,0.9,4.9,2.6C80.7,439.9,81.4,442.3,81.4,444.8z"/>
		<path class="st0" d="M149.7,440c0,5.5-0.6,11-2,16.2c-1.2,4.7-3.3,9-5.9,12.8c-2.5,3.5-5.7,6.3-9.3,8.2c-3.8,2-8,2.9-12.1,2.8
			c-4.1,0.1-8.2-0.9-12-2.9c-3.5-1.9-6.7-4.7-9.2-8.2c-2.6-3.7-4.6-8.1-5.9-12.8c-2.7-10.6-2.7-21.9,0-32.5c1.2-4.7,3.2-9,5.9-12.7
			c2.5-3.5,5.7-6.3,9.2-8.1c7.7-3.8,16.4-3.8,24.1,0c3.6,1.9,6.7,4.7,9.3,8.2c2.7,3.7,4.7,8,5.9,12.7
			C149.1,429,149.8,434.5,149.7,440z M135,440c0-8-1.3-14.3-4-18.7c-2.4-4.3-6.4-6.8-10.6-6.7c-2.7-0.1-5.4,1-7.6,3
			c-2.4,2.3-4.1,5.3-5.1,8.8c-2.3,8.8-2.3,18.3,0,27.1c0.9,3.5,2.7,6.5,5,8.8c2.2,2.1,4.9,3.1,7.7,3.1c4.3,0.1,8.3-2.4,10.6-6.7
			C133.6,454.1,135,447.9,135,440L135,440z"/>
		<path class="st0" d="M216.3,440c0,5.5-0.6,11-2,16.2c-1.2,4.7-3.3,9-5.9,12.8c-2.5,3.5-5.7,6.3-9.3,8.2c-3.8,2-8,2.9-12.1,2.8
			c-4.1,0.1-8.2-0.9-12-2.9c-3.5-1.9-6.7-4.7-9.2-8.2c-2.7-3.7-4.7-8-5.9-12.7c-2.7-10.6-2.7-21.9,0-32.5c1.2-4.7,3.2-9,5.9-12.7
			c2.5-3.5,5.7-6.3,9.2-8.1c7.7-3.8,16.4-3.8,24.1,0c3.6,1.9,6.7,4.7,9.3,8.2c2.7,3.7,4.7,8,5.9,12.7
			C215.6,429,216.3,434.5,216.3,440z M201.5,440c0-8-1.3-14.3-4-18.7c-2.4-4.3-6.4-6.8-10.6-6.7c-2.7-0.1-5.4,1-7.6,3
			c-2.4,2.3-4.1,5.3-5.1,8.8c-2.4,8.8-2.4,18.3,0,27.1c0.9,3.5,2.7,6.5,5,8.8c2.2,2.1,4.9,3.1,7.7,3.1c4.3,0.1,8.3-2.4,10.6-6.7
			C200.2,454.1,201.5,447.9,201.5,440L201.5,440z"/>
		<path class="st0" d="M264.4,471l-13-28.6l-8,10.1v15.6c0.2,3.2-0.6,6.3-2.2,8.7c-1.3,1.9-3.1,3-5.1,3.1c-2.1,0.1-4.1-1-5.3-3
			c-1.3-2-1.9-5-1.9-8.9v-83.8c0-4.4,0.6-7.7,1.9-10c1.2-2.2,3.2-3.5,5.4-3.4c2.1-0.1,4.1,1.1,5.4,3.1c1.3,2.1,2,5.1,2,9.1v47.7
			l16.5-23.2c1.4-2.1,3-4.1,4.7-5.9c2.6-2.4,6.2-2.1,8.5,0.8c1.2,1.6,1.9,3.7,1.8,5.9c0,2.9-2,6.7-6,11.5l-7.8,9.6l15.1,31.7
			c1.1,2.4,1.9,4.1,2.4,5.4c0.5,1.1,0.7,2.3,0.7,3.5c0.1,2.7-0.6,5.3-1.9,7.4c-1.2,1.8-3.1,2.8-5,2.7c-1.5,0.1-3.1-0.6-4.1-1.9
			C266.8,475.8,265.5,473.5,264.4,471z"/>
		<path class="st1" d="M325.7,478.1h-24.1c-3.5,0-6-1-7.5-3.1s-2.2-5.5-2.2-10v-79.4c0-4.7,0.7-8,2.2-10s4-3.1,7.4-3.1h25.6
			c3.3,0,6.6,0.3,9.8,0.9c2.7,0.6,5.2,1.8,7.4,3.6c1.9,1.5,3.6,3.4,5,5.7c1.4,2.3,2.5,4.8,3.3,7.6c0.8,2.8,1.1,5.8,1.1,8.7
			c0,10.6-3.9,18.3-11.8,23.2c10.4,4.4,15.5,13,15.5,25.8c0.1,5.6-1.1,11.1-3.4,15.9c-2.1,4.6-5.3,8.2-9.2,10.5
			c-2.6,1.4-5.4,2.4-8.3,2.8C333,477.9,329.3,478.2,325.7,478.1z M307.9,388.6v27.3h14.6c3.1,0.2,6.2-0.4,9.2-1.5
			c2.2-1.1,4-3.1,5-5.8c0.9-2.1,1.4-4.4,1.3-6.8c0-5.3-1.4-8.9-4.2-10.6s-7.2-2.6-13-2.6H307.9z M324.5,431.3h-16.6v30.8h17.2
			c10.8,0,16.2-5.2,16.2-15.6c0-5.3-1.4-9.2-4.2-11.6C334.3,432.5,330.1,431.3,324.5,431.3z"/>
		<path class="st1" d="M425.2,440c0,5.5-0.6,11-2,16.2c-1.2,4.7-3.3,9-5.9,12.8c-2.5,3.5-5.7,6.3-9.3,8.2c-3.8,2-8,2.9-12.1,2.8
			c-4.1,0.1-8.2-0.9-12-2.9c-3.5-1.9-6.7-4.7-9.2-8.2c-2.7-3.7-4.7-8-5.9-12.7c-2.7-10.6-2.7-21.9,0-32.5c1.2-4.7,3.2-9,5.9-12.7
			c2.6-3.5,5.7-6.3,9.3-8.1c7.7-3.8,16.4-3.8,24.1,0c3.6,1.9,6.7,4.7,9.3,8.2c2.6,3.7,4.6,8,5.9,12.7
			C424.6,429,425.3,434.5,425.2,440z M410.5,440c0-8-1.3-14.3-4-18.7c-4.1-7.2-12.3-8.9-18.1-3.8l-0.1,0.1c-2.4,2.3-4.1,5.3-5.1,8.8
			c-1.2,4.4-1.8,9-1.8,13.6c-0.1,4.6,0.5,9.1,1.7,13.5c0.9,3.5,2.7,6.5,5,8.8c2.2,2.1,4.9,3.1,7.7,3.1c4.3,0.1,8.3-2.4,10.6-6.7
			C409.2,454.1,410.5,447.9,410.5,440z"/>
		<path class="st1" d="M491.8,440c0,5.5-0.6,11-2,16.2c-1.2,4.7-3.3,9-5.9,12.8c-2.5,3.5-5.7,6.3-9.3,8.2c-3.8,2-8,2.9-12.1,2.8
			c-4.1,0.1-8.2-0.9-12-2.9c-3.5-1.9-6.7-4.7-9.2-8.2c-2.7-3.7-4.7-8-5.9-12.7c-2.7-10.6-2.7-21.9,0-32.5c1.2-4.7,3.2-9,5.9-12.7
			c2.6-3.5,5.7-6.3,9.3-8.1c7.7-3.8,16.4-3.8,24.1,0c3.6,1.9,6.7,4.7,9.3,8.2c2.6,3.7,4.6,8,5.9,12.7
			C491.2,429,491.8,434.5,491.8,440z M477.1,440c0-8-1.3-14.3-4-18.7c-4.1-7.2-12.3-8.9-18.1-3.8l-0.1,0.1c-2.4,2.3-4.1,5.3-5.1,8.8
			c-1.2,4.4-1.8,9-1.8,13.6c-0.1,4.6,0.5,9.1,1.7,13.5c0.9,3.5,2.7,6.5,5,8.8c2.2,2.1,4.9,3.1,7.7,3.1c4.3,0.1,8.3-2.4,10.6-6.7
			C475.7,454.1,477.1,447.9,477.1,440z"/>
		<path class="st1" d="M540,471l-13-28.5l-8,10.1v15.6c0.2,3.2-0.6,6.3-2.2,8.7c-1.3,1.9-3.1,3-5.1,3.1c-2.1,0.1-4.1-1-5.3-3
			c-1.3-2-1.9-5-1.9-8.9v-83.9c0-4.4,0.6-7.7,1.9-10c1.2-2.2,3.2-3.5,5.4-3.4c2.1-0.1,4.1,1.1,5.4,3.1c1.3,2.1,2,5.1,2,9.1v47.7
			l16.5-23.2c1.4-2.1,3-4.1,4.7-5.9c2.6-2.4,6.2-2.1,8.5,0.8c1.2,1.6,1.9,3.7,1.8,5.9c0,2.9-2,6.7-6,11.5l-7.8,9.6l15.1,31.7
			c1.1,2.4,1.9,4.1,2.4,5.4c0.5,1.1,0.7,2.3,0.7,3.5c0.1,2.7-0.6,5.3-1.9,7.4c-1.2,1.8-3.1,2.8-5,2.7c-1.5,0.1-3.1-0.6-4.1-1.9
			C542.4,475.8,541.1,473.5,540,471z"/>
	</g>
</g>
</svg>
